<svg xmlns="http://www.w3.org/2000/svg" xmlns:xlink="http://www.w3.org/1999/xlink" viewBox="0 0 256 256"><defs><style>.cls-1{fill:none;}.cls-2{clip-path:url(#clip-path);}.cls-3{fill:#999;}.cls-4{fill:gray;}.cls-5{opacity:0.3;}</style><clipPath id="clip-path" transform="translate(0)"><circle class="cls-1" cx="128" cy="128" r="100"/></clipPath></defs><g id="Planet_color" data-name="Planet color"><g class="cls-2"><rect class="cls-3" width="256" height="256"/><path class="cls-4" d="M148.12,42.86c-5.31-1.07-10.21,1-11,4.74s3,7.54,8.26,8.61,10.2-1.05,10.95-4.74S153.42,43.93,148.12,42.86ZM145.88,54c-3.54-.72-6-3.29-5.51-5.75s3.76-3.87,7.3-3.15,6,3.28,5.51,5.74S149.41,54.7,145.88,54Z" transform="translate(0)"/><path class="cls-4" d="M157.76,177.41c-6.54,3.63-9.39,11-6.36,16.43s10.77,6.93,17.31,3.3,9.39-11,6.36-16.44S164.3,173.78,157.76,177.41Zm9.12,16.44c-4.35,2.42-9.52,1.43-11.54-2.2s-.11-8.53,4.24-11,9.53-1.44,11.55,2.19S171.24,191.43,166.88,193.85Z" transform="translate(0)"/><path class="cls-4" d="M72.23,145.85a9.8,9.8,0,1,0,13.29,2.88A9.61,9.61,0,0,0,72.23,145.85Zm9.1,13.56a6.54,6.54,0,1,1,1.58-8.93A6.42,6.42,0,0,1,81.33,159.41Z" transform="translate(0)"/><path class="cls-4" d="M156.47,116.21a7.44,7.44,0,1,0,7.44,7.44A7.44,7.44,0,0,0,156.47,116.21Zm0,12.39a5,5,0,1,1,5-4.95A4.95,4.95,0,0,1,156.47,128.6Z" transform="translate(0)"/><path class="cls-4" d="M63,76.66c-3.16-2-7.88-.16-10.54,4.08S50.22,90,53.37,92s7.88.15,10.55-4.09S66.18,78.64,63,76.66Zm-8,12.8c-2.1-1.33-2.37-4.69-.6-7.52s4.93-4,7-2.72,2.38,4.68.6,7.51S57.09,90.78,55,89.46Z" transform="translate(0)"/><path class="cls-4" d="M209.36,98.86c-2.8,0-5.07,3.33-5.07,7.44s2.27,7.43,5.07,7.43,5.08-3.33,5.08-7.43S212.16,98.86,209.36,98.86Zm0,12.39c-1.87,0-3.38-2.22-3.38-5s1.51-5,3.38-5,3.38,2.22,3.38,5S211.23,111.25,209.36,111.25Z" transform="translate(0)"/><path class="cls-4" d="M106.54,90a8.87,8.87,0,1,0,8.88,8.87A8.87,8.87,0,0,0,106.54,90Zm0,14.79a5.92,5.92,0,1,1,5.92-5.92A5.92,5.92,0,0,1,106.54,104.78Z" transform="translate(0)"/></g></g><g id="Lighting"><path id="Shadow" class="cls-5" d="M200.05,58.66A100,100,0,0,1,39.39,174.37,100,100,0,1,0,200.05,58.66Z" transform="translate(0)"/></g></svg>