<svg xmlns="http://www.w3.org/2000/svg" xmlns:xlink="http://www.w3.org/1999/xlink" viewBox="0 0 289.26 256"><defs><style>.cls-1{fill:none;}.cls-2{fill:#e6881c;}.cls-3{clip-path:url(#clip-path);}.cls-4{fill:#d62f2f;}.cls-5{opacity:0.3;}</style><clipPath id="clip-path" transform="translate(16.63)"><circle class="cls-1" cx="128" cy="128" r="100"/></clipPath></defs><g id="Back_Ring" data-name="Back Ring"><path class="cls-2" d="M212.91,125.21c17.81,9.58,28.69,18.64,29.1,25.22l24.34,7.31C257.11,148.11,238.16,136.65,212.91,125.21Z" transform="translate(16.63)"/><path class="cls-2" d="M20.48,84c4-5.27,18-6.84,38.18-5C31.28,74.56,9.15,73.7-3.86,76.64Z" transform="translate(16.63)"/></g><g id="Planet_color" data-name="Planet color"><g class="cls-3"><rect class="cls-4" x="16.63" width="256" height="256"/></g></g><g id="Lighting"><path id="Shadow" class="cls-5" d="M200.05,58.66A100,100,0,0,1,39.39,174.37,100,100,0,1,0,200.05,58.66Z" transform="translate(16.63)"/></g><g id="Front_Ring" data-name="Front Ring"><path class="cls-2" d="M266.35,157.74,242,150.43a5.67,5.67,0,0,1-.22,2c-3.91,13-56.83,8.69-118.2-9.73s-107.93-43.92-104-57A5.62,5.62,0,0,1,20.48,84L-3.86,76.64c-7,1.57-11.33,4.24-12.47,8-5.09,16.95,55.41,50.08,135.12,74s148.46,29.58,153.54,12.63C273.47,167.51,271.3,162.89,266.35,157.74Z" transform="translate(16.63)"/></g></svg>