<svg xmlns="http://www.w3.org/2000/svg" xmlns:xlink="http://www.w3.org/1999/xlink" viewBox="0 0 283.44 286.08"><defs><style>.cls-1{fill:none;}.cls-2{clip-path:url(#clip-path);}.cls-3{fill:#f15a24;}.cls-4{fill:#333;}.cls-5{opacity:0.3;}</style><clipPath id="clip-path" transform="translate(14.16 0)"><circle class="cls-1" cx="128" cy="128" r="100"/></clipPath></defs><g id="Planet_color" data-name="Planet color"><g class="cls-2"><rect class="cls-3" width="256" height="256" transform="translate(14.16 256) rotate(-90)"/><path class="cls-4" d="M-3,134S7.15,157.7,27.8,154.05s6.3-4.59,11.61-16.53,7.09,6.11,13.12-4.45-3.44-10.92,2.61-20.79,28.65-6.74,28.78-33.18S60.52,65.28,52.37,48.34c-2.3-6.42,4.74-13.17,4.74-13.17S7.6,43.33-8.26,81.93-3,134-3,134Z" transform="translate(14.16 0)"/><path class="cls-4" d="M77.14,208.6c-14.2,17.86-4.94,42.43,6.27,47.73s-17.08,54.48,52.4,13.72-1.24-26,10-33.75,10.68-27.29-10.39-26.93-30.49-7.24-22.54-24.05-28.14-17.53-34.54.48S77.14,208.6,77.14,208.6Z" transform="translate(14.16 0)"/><path class="cls-4" d="M104.87,110.25s-7.44,2.91-5.12,10.87,12.24,12,9.07,19,10.71,12.63,18.85,14.53,5.21-5.54,8.19-14.33,10.47-.27,12,3.94,10-5.39,8.75-10.29-15.32-26.67-29-31.74S104.87,110.25,104.87,110.25Z" transform="translate(14.16 0)"/><path class="cls-4" d="M154.66,52.38c2.66-21.75-13.59-29.06-13.59-29.06s4-12.89,22.93-14.55,40.2,24,42,45.78-18.26,45-5.87,56-2.33,17.6-10.91,15,1.19-10.7-5.88-34.15-24-8.9-30.27-24.93C148.23,57.59,153.41,62.64,154.66,52.38Z" transform="translate(14.16 0)"/><path class="cls-4" d="M261.36,206s11.31-5.3,6.9-17.48S248,171.07,252.2,159.79s-18-18.62-30.85-20.77-7.58,9.16-11.35,23.17-16.3,1.48-19.05-4.95-15.12,9.41-12.62,16.93,26.57,40.07,48.45,46.61S261.36,206,261.36,206Z" transform="translate(14.16 0)"/></g></g><g id="Lighting"><path id="Shadow" class="cls-5" d="M200.05,58.66A100,100,0,0,1,39.39,174.37,100,100,0,1,0,200.05,58.66Z" transform="translate(14.16 0)"/></g></svg>