<svg xmlns="http://www.w3.org/2000/svg" xmlns:xlink="http://www.w3.org/1999/xlink" viewBox="0 0 390.18 256"><defs><style>.cls-1{fill:none;}.cls-2{clip-path:url(#clip-path);}.cls-3{fill:#e6e6e6;}.cls-4{fill:#911e23;}.cls-5{opacity:0.3;}</style><clipPath id="clip-path" transform="translate(91.98)"><circle class="cls-1" cx="128" cy="128" r="100"/></clipPath></defs><g id="Planet_color" data-name="Planet color"><g class="cls-2"><rect class="cls-3" x="91.98" width="256" height="256"/><path class="cls-4" d="M272.29,53.67,240.23,63.74l0,0c1.43,4.55-47.74,24-109.82,43.55S16.88,139,15.45,134.45a.13.13,0,0,0,0-.06l-32.06,10.08c-2.84,1.85-4.21,3.3-3.91,4.25,1.89,6,70.24-10.08,152.66-36s147.7-51.79,145.81-57.82C277.64,54,275.68,53.57,272.29,53.67Z" transform="translate(91.98)"/><path class="cls-4" d="M273.76,136.18l-33,6.45a.05.05,0,0,1,0,0c.72,3.7-50.46,16.82-114.33,29.3S10.25,191.57,9.52,187.86a.43.43,0,0,0,0-.05l-33,6.45c-3.06,1.34-4.63,2.43-4.48,3.2,1,4.92,70.48-4.52,155.27-21.09s152.75-34,151.79-38.91C279,136.69,277.11,136.27,273.76,136.18Z" transform="translate(91.98)"/><path class="cls-4" d="M24.82,122.31c-47.21,17-85,32-84.4,33.7-1.11-3.08,36.26-19.33,83.47-36.28s86.37-28.2,87.48-25.12C110.78,93,72,105.36,24.82,122.31Z" transform="translate(91.98)"/><path class="cls-4" d="M157,131.4c-47.8,15.21-87.09,25.81-87.77,23.68,1.26,4,41-5.14,88.83-20.35S243.59,104,242.32,100C243,102.12,204.81,116.19,157,131.4Z" transform="translate(91.98)"/><path class="cls-4" d="M39.32,220.47c-50.15-.56-90.78-3.67-90.75-6.95-.06,6.1,40.54,11.5,90.69,12.07s90.87-3.94,90.94-10C130.17,218.83,89.48,221,39.32,220.47Z" transform="translate(91.98)"/><path class="cls-4" d="M210.47,168.63c-41.34,14.83-75.75,24.36-76.86,21.27,2.07,5.75,37.25-1.62,78.58-16.46s73.18-31.51,71.12-37.26C284.41,139.27,251.8,153.79,210.47,168.63Z" transform="translate(91.98)"/><path class="cls-4" d="M-11,105.11c-46,20-82.2,38.71-80.89,41.71C-94.3,141.23-59,120.45-13,100.41S72.22,68.67,74.66,74.27C73.35,71.27,35,85.07-11,105.11Z" transform="translate(91.98)"/><path class="cls-4" d="M208.19,44.34C159.18,55,120,66.26,120.72,69.46c-1.3-6,37.38-19.45,86.39-30.12s89.79-14.49,91.09-8.52C297.5,27.61,257.2,33.67,208.19,44.34Z" transform="translate(91.98)"/><path class="cls-4" d="M104,34.46C79.64,40.83,60.49,48.24,61.22,51,59.87,45.85,78.5,36.5,102.84,30.13S148,22.8,149.36,28C148.63,25.19,128.31,28.1,104,34.46Z" transform="translate(91.98)"/></g></g><g id="Lighting"><path id="Shadow" class="cls-5" d="M200.05,58.66A100,100,0,0,1,39.39,174.37,100,100,0,1,0,200.05,58.66Z" transform="translate(91.98)"/></g></svg>