<svg xmlns="http://www.w3.org/2000/svg" xmlns:xlink="http://www.w3.org/1999/xlink" viewBox="0 0 274.82 256"><defs><style>.cls-1{fill:none;}.cls-2{clip-path:url(#clip-path);}.cls-3{fill:#c9ffff;}.cls-4{fill:#a3ffff;}.cls-5{opacity:0.3;}</style><clipPath id="clip-path" transform="translate(10.77)"><circle class="cls-1" cx="128" cy="128" r="100"/></clipPath></defs><g id="Planet_color" data-name="Planet color"><g class="cls-2"><rect class="cls-3" x="10.77" width="256" height="256"/><path id="lighter_bot" data-name="lighter bot" class="cls-4" d="M248.4,102.32c-24.62,8.86-39.92,25.54-61.71,29.27s-27,21.17-63,20.9c-51.47-.39-73.34-8.05-105.11-3.85s-46.66,22.86,2.12,20,29.07-7.32,63.15-5,52.15,9.39,70,.45,44.72-15.66,58.62-27.12,32.8-3.28,47.24-6.05S248.4,102.32,248.4,102.32Z" transform="translate(10.77)"/><path class="cls-4" d="M216.48,63.24c-14.07-3.62-21-7.28-37.83-6.64s-31.57,8.81-46.76,9.87-17.79,9.37-32.51,7.7-24.23-6.86-38.92-5-22.35-8-36.08-8.1S7,53.79,19.84,47.08s18.06,9.16,38.7,9.73,35,9.06,47,4.92,40.93-14.61,57.31-12.57S186.14,45.43,204,46.3,216.3,61.8,216.3,61.8Z" transform="translate(10.77)"/><path class="cls-4" d="M232.3,58.66c-22.75,9-38.46,27.5-58,30.76S144.43,120.94,100.53,110,50.67,82.31,22.32,85.62s-41.28,39.46,1.74,38.5,26.42-7,55.88-2.78,42.55,6.15,59.36-3.3,43-8.72,56.71-21.24,29.12-2.21,42.12-4.71S232.3,58.66,232.3,58.66Z" transform="translate(10.77)"/><path class="cls-4" d="M26.83,217c13.4-5.63,19.7-10.25,36.46-12.06s32.52,4.13,47.7,3,19,6.68,33.29,2.89,23-10.3,37.77-10.64,21-11.15,34.52-13.25,16.18-9.7,2.46-14.47-16.54,11.69-36.86,15.26-33.3,14-45.76,11.68-42.62-8.5-58.53-4.1-23.62-.31-41.15,3.15-9.93,17.12-9.93,17.12Z" transform="translate(10.77)"/><path class="cls-4" d="M209.33,28.63c-14.08-3.62-21-7.28-37.83-6.64s-31.57,8.81-46.76,9.87S107,41.23,92.23,39.56,68,32.71,53.3,34.52s-22.35-8-36.07-8.1S-.19,19.18,12.69,12.47s18.06,9.16,38.69,9.74,35,9.05,47,4.91,40.94-14.61,57.31-12.57,23.33-3.73,41.18-2.86,12.31,15.5,12.31,15.5Z" transform="translate(10.77)"/></g></g><g id="Lighting"><path id="Shadow" class="cls-5" d="M200.05,58.66A100,100,0,0,1,39.39,174.37,100,100,0,1,0,200.05,58.66Z" transform="translate(10.77)"/></g></svg>