<svg xmlns="http://www.w3.org/2000/svg" xmlns:xlink="http://www.w3.org/1999/xlink" viewBox="0 0 420.77 256"><defs><style>.cls-1{fill:none;}.cls-2{clip-path:url(#clip-path);}.cls-3{fill:#552c75;}.cls-4{fill:#954dcf;}.cls-5{fill:#783ea6;}.cls-6{opacity:0.3;}</style><clipPath id="clip-path" transform="translate(46.84)"><circle class="cls-1" cx="128" cy="128" r="100"/></clipPath></defs><g id="Planet_color" data-name="Planet color"><g class="cls-2"><rect class="cls-3" x="46.84" width="256" height="256"/><path id="lighter_bot" data-name="lighter bot" class="cls-4" d="M243.11,67.09c-28.35,11.51-50.53,37-74,40.41S133.37,138.87,97.32,134c-51.54-6.9-70.39-22.12-104-19.11s-56.2,31.75-6,33,32.19-8.44,65.5-.55,48.55,21.73,70.09,9.25,51.32-20.19,70-37.25,34.29-1.38,49.92-4.15S243.11,67.09,243.11,67.09Z" transform="translate(46.84)"/><path class="cls-4" d="M216.17,64.58c-14.07-3.63-21-7.28-37.83-6.64s-31.57,8.81-46.76,9.87-17.79,9.36-32.51,7.7-24.23-6.86-38.92-5-22.36-8-36.08-8.1S6.65,55.13,19.53,48.42s18.06,9.16,38.7,9.73,35,9.06,47,4.92,40.93-14.61,57.31-12.57,23.32-3.73,41.17-2.86S216,63.14,216,63.14Z" transform="translate(46.84)"/><path class="cls-5" d="M222.78,73.61c-22.74,9-38.45,27.49-58,30.75S134.92,135.89,91,124.89,41.16,97.25,12.81,100.57s-41.28,39.46,1.74,38.5,26.42-7,55.88-2.78,42.55,6.15,59.36-3.3,43-8.72,56.7-21.25,29.13-2.21,42.12-4.7S222.78,73.61,222.78,73.61Z" transform="translate(46.84)"/><path class="cls-5" d="M-46.78,187.37c14.37-2.15,21.61-5.09,38.31-2.71s30.5,12,45.5,14.61,16.74,11.15,31.55,11,24.8-4.33,39.23-1,23.06-5.65,36.72-4.35,18.07-5.41,5.95-13.41-18.91,7.26-39.49,5.71-35.73,5.42-47.23.06S24.55,178.53,8.05,178.88s-22.82-6.11-40.67-7.07S-46.45,186-46.45,186Z" transform="translate(46.84)"/><path class="cls-5" d="M176.3,174.85c12.89-6.7,18.8-11.81,35.36-15s32.75,1.49,47.78-.9,19.45,5.13,33.42.19S314.92,147,329.65,145.5s20-12.82,33.32-16,15.35-11,1.29-14.61-15.54,13-35.51,18.19-32.05,16.69-44.66,15.35-43.17-5-58.67.64-23.57,1.61-40.76,6.48-8.51,17.86-8.51,17.86Z" transform="translate(46.84)"/></g></g><g id="Lighting"><path id="Shadow" class="cls-6" d="M200.05,58.66A100,100,0,0,1,39.39,174.37,100,100,0,1,0,200.05,58.66Z" transform="translate(46.84)"/></g></svg>