<svg xmlns="http://www.w3.org/2000/svg" xmlns:xlink="http://www.w3.org/1999/xlink" viewBox="0 0 256 256"><defs><style>.cls-1{fill:none;}.cls-2{clip-path:url(#clip-path);}.cls-3{fill:#2f6fd6;}.cls-4{fill:#25a33e;}.cls-5{opacity:0.3;}</style><clipPath id="clip-path" transform="translate(0)"><circle class="cls-1" cx="128" cy="128" r="100"/></clipPath></defs><g id="Planet_color" data-name="Planet color"><g class="cls-2"><rect class="cls-3" width="256" height="256"/><path class="cls-4" d="M71.09,34.58S54,53.87,66.12,71,73,74.71,86,74.39s-2.49,9,9.64,10,8.4-7.78,19.91-6.53,18.35,23,42.3,11.81,2.49-27,14.31-41.67c4.82-4.82,13.93-1.35,13.93-1.35S157.56,5.35,115.88,7.52,71.09,34.58,71.09,34.58Z" transform="translate(0)"/><path class="cls-4" d="M192.25,118.75c-14.05-15-12.39,6.75-31.3-3.12s-21.42,9.74-17.07,16,24.26,8.83,23.16,23.66-3.49,19.58,3.49,23.12,41.25-6.16,40.25-22.41S192.25,118.75,192.25,118.75Z" transform="translate(0)"/><path class="cls-4" d="M85,154.81c-14.89-6.57-30.17,4.26-31.79,12.95s-40.67-1.93,0,38.63,17.7-5.55,25.1.82,20.76,2.44,16.7-12-.52-22.34,12.52-19.9,7-22.58-6.58-23.74S85,154.81,85,154.81Z" transform="translate(0)"/></g></g><g id="Lighting"><path id="Shadow" class="cls-5" d="M200.05,58.66A100,100,0,0,1,39.39,174.37,100,100,0,1,0,200.05,58.66Z" transform="translate(0)"/></g></svg>