<svg xmlns="http://www.w3.org/2000/svg" xmlns:xlink="http://www.w3.org/1999/xlink" viewBox="0 0 301.38 256"><defs><style>.cls-1{fill:none;}.cls-2{fill:#ad9170;}.cls-3{clip-path:url(#clip-path);}.cls-4{fill:#2fd6c0;}.cls-5{opacity:0.3;}</style><clipPath id="clip-path" transform="translate(22.69)"><circle class="cls-1" cx="128" cy="128" r="100"/></clipPath></defs><g id="Back_Ring" data-name="Back Ring"><path class="cls-2" d="M208.53,107c19.8,4.07,32.83,9.61,35.12,15.8h25.41C257.44,116.22,236,110.68,208.53,107Z" transform="translate(22.69)"/><path class="cls-2" d="M12.35,122.78c2.29-6.19,15.32-11.73,35.12-15.8-27.46,3.7-48.91,9.24-60.53,15.8Z" transform="translate(22.69)"/></g><g id="Planet_color" data-name="Planet color"><g class="cls-3"><rect class="cls-4" x="22.69" width="256" height="256"/></g></g><g id="Lighting"><path id="Shadow" class="cls-5" d="M200.05,58.66A100,100,0,0,1,39.39,174.37,100,100,0,1,0,200.05,58.66Z" transform="translate(22.69)"/></g><g id="Front_Ring" data-name="Front Ring"><path class="cls-2" d="M269.06,122.78H243.65a5.8,5.8,0,0,1,.36,2c0,13.62-51.94,24.66-116,24.66s-116-11-116-24.67a5.79,5.79,0,0,1,.36-2H-13.06c-6.22,3.51-9.63,7.31-9.63,11.29,0,17.69,67.47,32,150.69,32s150.69-14.34,150.69-32C278.69,130.09,275.28,126.29,269.06,122.78Z" transform="translate(22.69)"/></g></svg>