<svg xmlns="http://www.w3.org/2000/svg" xmlns:xlink="http://www.w3.org/1999/xlink" viewBox="0 0 256 256"><defs><style>.cls-1{fill:none;}.cls-2{clip-path:url(#clip-path);}.cls-3{fill:#999;}.cls-4{fill:gray;}.cls-5{fill:#666;}.cls-6{opacity:0.3;}.cls-7{opacity:0.3;}</style><clipPath id="clip-path"><circle id="mask" class="cls-1" cx="128" cy="128" r="100"/></clipPath></defs><g id="Planet_color" data-name="Planet color"><g class="cls-2"><rect id="bottom" class="cls-3" y="132" width="256" height="124"/><ellipse id="ledge" class="cls-4" cx="128" cy="132" rx="100" ry="5.34"/><path id="mid" class="cls-5" d="M158,127.86c-9.44-.13-19.51-.2-30-.2s-20.53.07-30,.2H30.42v3.9c0,2.26,43.69,4.1,97.58,4.1s97.58-1.84,97.58-4.1v-3.9Z"/><path id="topper" class="cls-3" d="M0,0V128.28H28c0,2.95,44.77,5.34,100,5.34s100-2.39,100-5.34h28V0Z"/><ellipse id="boom_boom_big" data-name="boom boom big" class="cls-4" cx="71.41" cy="82.85" rx="32.04" ry="21.31" transform="translate(-36.41 101.21) rotate(-58.91)"/><ellipse id="boom_boom_small" data-name="boom boom small" class="cls-3" cx="73.12" cy="83.64" rx="2.81" ry="1.87" transform="translate(-36.27 103.06) rotate(-58.91)"/></g></g><g id="Lighting"><path class="cls-6" d="M200.05,58.66a100.19,100.19,0,0,1,7.84,72.83c12.57-.89,20-2,20.11-3.19V128A99.66,99.66,0,0,0,200.05,58.66Z"/><path class="cls-7" d="M128,228a100,100,0,0,0,99.92-96.2,4.62,4.62,0,0,0-2.34-1v-1.38c-3.15.75-9.27,1.45-17.69,2a100,100,0,0,1-168.5,42.88A100,100,0,0,0,128,228Z"/></g></svg>