<svg xmlns="http://www.w3.org/2000/svg" xmlns:xlink="http://www.w3.org/1999/xlink" viewBox="0 0 390.18 256"><defs><style>.cls-1{fill:none;}.cls-2{clip-path:url(#clip-path);}.cls-3{fill:#d1b735;}.cls-4{fill:#ba922f;}.cls-5{opacity:0.3;}</style><clipPath id="clip-path" transform="translate(39.71)"><circle class="cls-1" cx="128" cy="128" r="100"/></clipPath></defs><g id="Planet_color" data-name="Planet color"><g class="cls-2"><rect class="cls-3" x="39.71" width="256" height="256"/><path class="cls-4" d="M-13.8,55.27,18.26,65.35l0,.05C16.8,69.94,66,89.44,128.05,109s113.56,31.64,115,27.1a.13.13,0,0,1,0-.06l32.06,10.08c2.84,1.86,4.21,3.3,3.91,4.25-1.89,6-70.24-10.08-152.66-36S-21.34,62.55-19.45,56.52C-19.15,55.57-17.19,55.17-13.8,55.27Z" transform="translate(39.71)"/><path class="cls-4" d="M-15.27,137.78l33,6.45s0,0,0,0C17,148,68.15,161.1,132,173.58s116.22,19.59,117,15.88c0,0,0,0,0,0l33,6.44c3.06,1.35,4.63,2.43,4.48,3.21-1,4.92-70.48-4.53-155.27-21.1s-152.75-34-151.79-38.9C-20.48,138.29-18.62,137.87-15.27,137.78Z" transform="translate(39.71)"/><path class="cls-4" d="M233.67,123.92c47.21,17,85,32,84.4,33.69,1.11-3.08-36.26-19.33-83.47-36.28s-86.37-28.2-87.48-25.11C147.71,94.56,186.47,107,233.67,123.92Z" transform="translate(39.71)"/><path class="cls-4" d="M101.48,133c47.8,15.21,87.09,25.82,87.77,23.68-1.26,4-41-5.13-88.83-20.35S14.9,105.57,16.17,101.59C15.49,103.73,53.68,117.79,101.48,133Z" transform="translate(39.71)"/><path class="cls-4" d="M219.17,222.07c50.15-.56,90.78-3.67,90.75-6.95.06,6.11-40.54,11.51-90.69,12.07s-90.87-3.93-90.94-10C128.33,220.43,169,222.63,219.17,222.07Z" transform="translate(39.71)"/><path class="cls-4" d="M48,170.23c41.34,14.83,75.75,24.36,76.86,21.27-2.07,5.75-37.25-1.62-78.58-16.45s-73.18-31.52-71.12-37.27C-25.92,140.87,6.69,155.4,48,170.23Z" transform="translate(39.71)"/><path class="cls-4" d="M269.46,106.71c46,20,82.2,38.71,80.89,41.72,2.44-5.6-32.86-26.38-78.84-46.41s-85.24-31.74-87.68-26.15C185.14,72.87,223.48,86.67,269.46,106.71Z" transform="translate(39.71)"/><path class="cls-4" d="M50.3,45.94c49,10.67,88.17,21.92,87.47,25.12,1.3-6-37.38-19.45-86.39-30.12s-89.79-14.48-91.09-8.52C-39,29.22,1.29,35.27,50.3,45.94Z" transform="translate(39.71)"/><path class="cls-4" d="M154.51,36.07c24.34,6.36,43.49,13.77,42.76,16.55,1.35-5.17-17.28-14.52-41.62-20.88s-45.17-7.34-46.52-2.17C109.86,26.79,130.18,29.7,154.51,36.07Z" transform="translate(39.71)"/></g></g><g id="Lighting"><path id="Shadow" class="cls-5" d="M200.05,58.66A100,100,0,0,1,39.39,174.37,100,100,0,1,0,200.05,58.66Z" transform="translate(39.71)"/></g></svg>