<svg xmlns="http://www.w3.org/2000/svg" viewBox="0 0 1440 2560"><defs><style>.cls-1{fill:#fff;}</style></defs><g id="Layer_1" data-name="Layer 1"><rect x="0.08" y="0.41" width="1440" height="2560"/></g><g id="Layer_2" data-name="Layer 2"><g id="Hor"><circle class="cls-1" cx="1257.03" cy="2387.2" r="7.29"/><circle class="cls-1" cx="919.13" cy="2381.09" r="5.43"/><circle class="cls-1" cx="592.87" cy="2422.44" r="5.96"/><circle class="cls-1" cx="290.88" cy="2425.27" r="6.81"/><circle class="cls-1" cx="488.08" cy="2555.2" r="6.78"/><circle class="cls-1" cx="802.05" cy="2469" r="5.37"/><circle class="cls-1" cx="1104.6" cy="2343.73" r="5.4"/><circle class="cls-1" cx="1400.35" cy="2216.45" r="6.46"/><circle class="cls-1" cx="1021.85" cy="2034.42" r="5.31"/><circle class="cls-1" cx="694.65" cy="2105" r="5.78"/><circle class="cls-1" cx="373.49" cy="2170.22" r="6.41"/><circle class="cls-1" cx="61.92" cy="2258.6" r="5.82"/><circle class="cls-1" cx="45.06" cy="2466.48" r="6.54"/><circle class="cls-1" cx="348.28" cy="2373.54" r="6.65"/><circle class="cls-1" cx="654.39" cy="2232.84" r="5.37"/><circle class="cls-1" cx="959.91" cy="2146.79" r="6.23"/><circle class="cls-1" cx="946.04" cy="1825.61" r="6.78"/><circle class="cls-1" cx="616.93" cy="1903.7" r="5.87"/><circle class="cls-1" cx="268.76" cy="1953.65" r="5.44"/><circle class="cls-1" cx="166.57" cy="2148.8" r="6.02"/><circle class="cls-1" cx="440.91" cy="2058.53" r="5.04"/><circle class="cls-1" cx="744.78" cy="1974.22" r="5.99"/><circle class="cls-1" cx="1039.82" cy="1913.87" r="6.8"/><circle class="cls-1" cx="1374.65" cy="1841.78" r="7.34"/><circle class="cls-1" cx="1313.97" cy="1587.52" r="6.09"/><circle class="cls-1" cx="979.48" cy="1602.53" r="7.17"/><circle class="cls-1" cx="655.09" cy="1632.02" r="7.33"/><circle class="cls-1" cx="332.52" cy="1651.77" r="5.03"/><circle class="cls-1" cx="14.01" cy="1646.03" r="6.52"/><circle class="cls-1" cx="136.31" cy="1886.96" r="6.19"/><circle class="cls-1" cx="447.33" cy="1836.73" r="6.15"/><circle class="cls-1" cx="773.89" cy="1807.38" r="6.67"/><circle class="cls-1" cx="1106.63" cy="1747.75" r="6.83"/><circle class="cls-1" cx="1114.33" cy="1389.24" r="7.42"/><circle class="cls-1" cx="763.97" cy="1434.05" r="7.08"/><circle class="cls-1" cx="448.89" cy="1453.67" r="7.15"/><circle class="cls-1" cx="143.56" cy="1449.86" r="5.67"/><circle class="cls-1" cx="0.02" cy="1658.36" r="5.04"/><circle class="cls-1" cx="309.64" cy="1611.75" r="5.06"/><circle class="cls-1" cx="636.45" cy="1528.93" r="5.53"/><circle class="cls-1" cx="968.99" cy="1462.78" r="6.35"/><circle class="cls-1" cx="1282.89" cy="1373.07" r="7.46"/><circle class="cls-1" cx="1200.27" cy="932.56" r="7.07"/><circle class="cls-1" cx="859.68" cy="926.62" r="5.95"/><circle class="cls-1" cx="542.64" cy="950.19" r="6.23"/><circle class="cls-1" cx="230.35" cy="962.38" r="6.38"/><circle class="cls-1" cx="184.32" cy="1207.92" r="7.01"/><circle class="cls-1" cx="505.53" cy="1201.89" r="6.53"/><circle class="cls-1" cx="854.58" cy="1163.73" r="5.11"/><circle class="cls-1" cx="1176.83" cy="1102.41" r="5.97"/><circle class="cls-1" cx="1203.27" cy="681.19" r="5.99"/><circle class="cls-1" cx="866.55" cy="713.07" r="7.36"/><circle class="cls-1" cx="536.8" cy="744.19" r="6.93"/><circle class="cls-1" cx="206.03" cy="800.52" r="6.31"/><circle class="cls-1" cx="133.22" cy="1011.1" r="6.96"/><circle class="cls-1" cx="437.25" cy="944.39" r="7.19"/><circle class="cls-1" cx="737.6" cy="925.64" r="6.99"/><circle class="cls-1" cx="1043.17" cy="856.49" r="5.67"/><circle class="cls-1" cx="1374.74" cy="794.73" r="6.53"/><circle class="cls-1" cx="1431.76" cy="422.06" r="5.19"/><circle class="cls-1" cx="1106.9" cy="387.92" r="6.56"/><circle class="cls-1" cx="803.16" cy="400.28" r="6.08"/><circle class="cls-1" cx="490.02" cy="402.67" r="6.85"/><circle class="cls-1" cx="158.93" cy="440.33" r="7.03"/><circle class="cls-1" cx="56.74" cy="685.92" r="5.24"/><circle class="cls-1" cx="404.18" cy="707.31" r="6.98"/><circle class="cls-1" cx="714.78" cy="666.7" r="5.06"/><circle class="cls-1" cx="1044.33" cy="686.65" r="5.96"/><circle class="cls-1" cx="1344.66" cy="636.67" r="5.75"/><circle class="cls-1" cx="1282.52" cy="196.67" r="5.74"/><circle class="cls-1" cx="983.01" cy="131.82" r="7.21"/><circle class="cls-1" cx="655.61" cy="107.07" r="5.9"/><circle class="cls-1" cx="309.64" cy="76.68" r="5.27"/><circle class="cls-1" cx="2.52" cy="70.72" r="5.52"/><circle class="cls-1" cx="-4.91" cy="244.26" r="5.41"/><circle class="cls-1" cx="323.23" cy="214.79" r="5.56"/><circle class="cls-1" cx="651.3" cy="160.49" r="7.11"/><circle class="cls-1" cx="964.52" cy="165.93" r="7.22"/><circle class="cls-1" cx="1273.89" cy="189.33" r="6.36"/></g><g id="line"><circle class="cls-1" cx="1425.43" cy="594.42" r="7.41"/><circle class="cls-1" cx="1113.67" cy="565.91" r="6.89"/><circle class="cls-1" cx="806.6" cy="558.57" r="7.3"/><circle class="cls-1" cx="455.98" cy="579.78" r="6.23"/><circle class="cls-1" cx="145.03" cy="593.79" r="7.31"/></g><g id="diag"><circle class="cls-1" cx="1337.54" cy="2288.54" r="6.69"/><circle class="cls-1" cx="1055.75" cy="2436.72" r="7.48"/><circle class="cls-1" cx="750.82" cy="2567.14" r="7.21"/><circle class="cls-1" cx="815.16" cy="2378.27" r="5.22"/><circle class="cls-1" cx="1032.52" cy="2100.01" r="5.62"/><circle class="cls-1" cx="1253.03" cy="1845.74" r="5.18"/><circle class="cls-1" cx="1191.1" cy="1369.33" r="7.18"/><circle class="cls-1" cx="830.17" cy="1520.54" r="7.09"/><circle class="cls-1" cx="555.25" cy="1716.29" r="7.43"/><circle class="cls-1" cx="284.17" cy="1919.11" r="5.95"/><circle class="cls-1" cx="27.71" cy="2094.15" r="5.33"/><circle class="cls-1" cx="18.48" cy="2409.16" r="6.27"/><circle class="cls-1" cx="276.15" cy="2192.32" r="5.23"/><circle class="cls-1" cx="522.51" cy="2003.65" r="6.87"/><circle class="cls-1" cx="779.9" cy="1763.75" r="5.77"/><circle class="cls-1" cx="1026.85" cy="1538.94" r="6"/><circle class="cls-1" cx="1230.1" cy="1265.55" r="5.16"/><circle class="cls-1" cx="1155.43" cy="877.23" r="6.69"/><circle class="cls-1" cx="821.99" cy="1034.13" r="5.99"/><circle class="cls-1" cx="548.86" cy="1247.85" r="6.55"/><circle class="cls-1" cx="290.42" cy="1449.23" r="6.7"/><circle class="cls-1" cx="32.13" cy="1603.34" r="6.29"/><circle class="cls-1" cx="190.74" cy="1524.05" r="5.98"/><circle class="cls-1" cx="402.62" cy="1312.69" r="6.29"/><circle class="cls-1" cx="670.93" cy="1130.8" r="7.11"/><circle class="cls-1" cx="896.86" cy="907.07" r="6.16"/><circle class="cls-1" cx="1164.92" cy="679.27" r="6.87"/><circle class="cls-1" cx="1412.49" cy="427.6" r="7.44"/><circle class="cls-1" cx="1112.78" cy="249.17" r="6.26"/><circle class="cls-1" cx="789.57" cy="374.27" r="6.93"/><circle class="cls-1" cx="513.26" cy="551.79" r="6.93"/><circle class="cls-1" cx="222.01" cy="727.76" r="5.16"/><circle class="cls-1" cx="187.23" cy="1080.92" r="7.39"/><circle class="cls-1" cx="449.23" cy="894.85" r="7.42"/><circle class="cls-1" cx="697.61" cy="673.3" r="5.07"/><circle class="cls-1" cx="939.56" cy="428.88" r="5.24"/><circle class="cls-1" cx="1124.74" cy="104.83" r="6.51"/><circle class="cls-1" cx="456.48" cy="99.12" r="5.75"/><circle class="cls-1" cx="187.2" cy="283.83" r="5.73"/><circle class="cls-1" cx="155.08" cy="520.85" r="7.04"/><circle class="cls-1" cx="326.42" cy="237.53" r="6.65"/></g></g></svg>