<svg id="Layer_1" data-name="Layer 1" xmlns="http://www.w3.org/2000/svg" viewBox="0 0 300 300"><defs><style>.cls-1{fill:#fff;}</style></defs><path class="cls-1" d="M288.37,139.67,228.13,35.33A20.66,20.66,0,0,0,210.24,25H89.76A20.66,20.66,0,0,0,71.87,35.33L11.63,139.67a20.66,20.66,0,0,0,0,20.66L71.87,264.67A20.66,20.66,0,0,0,89.76,275H210.24a20.66,20.66,0,0,0,17.89-10.33l60.24-104.34A20.66,20.66,0,0,0,288.37,139.67Zm-33,20.66-43.75,75.78a20.66,20.66,0,0,1-17.89,10.33h-87.5a20.66,20.66,0,0,1-17.89-10.33L44.61,160.33a20.66,20.66,0,0,1,0-20.66L88.36,63.89a20.66,20.66,0,0,1,17.89-10.33h87.5a20.66,20.66,0,0,1,17.89,10.33l43.75,75.78A20.66,20.66,0,0,1,255.39,160.33Z"/></svg>