<?xml version="1.0" encoding="utf-8"?>
<!-- Generator: Adobe Illustrator 24.1.2, SVG Export Plug-In . SVG Version: 6.00 Build 0)  -->
<svg version="1.1" id="Layer_1" xmlns="http://www.w3.org/2000/svg" xmlns:xlink="http://www.w3.org/1999/xlink" x="0px" y="0px"
	 viewBox="0 0 300 300" style="enable-background:new 0 0 300 300;" xml:space="preserve">
<style type="text/css">
	.st0{display:none;}
	.st1{fill:#FFFFFF;}
</style>
<rect x="-0.47" y="-0.3" class="st0" width="300" height="300"/>
<path class="st1" d="M220.76,52.6L220.76,52.6L220.76,52.6L88.31,75.91h-0.75v125.06c-4.05-1.87-8.71-2.94-13.67-2.94
	c-15.56,0-28.17,10.44-28.17,23.32c0,12.88,12.61,23.32,28.17,23.32c15.56,0,28.17-10.44,28.17-23.32V103.32l118.69-20.89v95.23
	c-4.05-1.87-8.71-2.94-13.67-2.94c-15.56,0-28.17,10.44-28.17,23.32c0,12.88,12.61,23.32,28.17,23.32
	c15.56,0,28.17-10.44,28.17-23.32V79.87V52.6v-2.55L220.76,52.6z"/>
</svg>
