<svg id="Layer_1" data-name="Layer 1" xmlns="http://www.w3.org/2000/svg" viewBox="0 0 250.04 250.04"><defs><style>.cls-1{fill:#fff;}</style></defs><path class="cls-1" d="M275,125.82l-4.66-17.39-37.54,10.06A88,88,0,0,0,218.71,94l27.47-27.47L233.45,53.82,206,81.3a89.4,89.4,0,0,0-24.46-14.12l10.06-37.54L174.18,25,164.13,62.51a87.79,87.79,0,0,0-28.25,0L125.82,25l-17.39,4.66,10.06,37.54A88,88,0,0,0,94,81.29L66.55,53.82,53.82,66.55,81.3,94a89.4,89.4,0,0,0-14.12,24.46L29.64,108.43,25,125.82l37.53,10.05a87.79,87.79,0,0,0,0,28.25L25,174.18l4.66,17.39,37.54-10.06A88,88,0,0,0,81.29,206L53.82,233.45l12.73,12.73L94,218.7a89.4,89.4,0,0,0,24.46,14.12l-10.06,37.54L125.82,275l10.05-37.53a87.79,87.79,0,0,0,28.25,0L174.18,275l17.39-4.66-10.06-37.54A88,88,0,0,0,206,218.71l27.47,27.47,12.73-12.73L218.7,206a89.4,89.4,0,0,0,14.12-24.46l37.54,10.06L275,174.18l-37.53-10.05a87.79,87.79,0,0,0,0-28.25ZM167.75,216.25a68.59,68.59,0,1,1,48.5-84A68.59,68.59,0,0,1,167.75,216.25Z" transform="translate(-24.98 -24.98)"/></svg>