<svg id="Layer_2" data-name="Layer 2" xmlns="http://www.w3.org/2000/svg" viewBox="0 0 132.72 200.1"><defs><style>.cls-1{fill:#fff;}</style></defs><polygon class="cls-1" points="25.2 0.1 5 0.1 0.2 0.1 0 0.1 0 25.1 5 25.1 5 5.1 25.2 5.1 25.2 0.1"/><polygon class="cls-1" points="132.72 25.2 132.72 5 132.72 0.2 132.72 0 107.72 0 107.72 5 127.72 5 127.72 25.2 132.72 25.2"/><polygon class="cls-1" points="0.72 174.9 0.72 195.1 0.72 199.9 0.72 200.1 25.72 200.1 25.72 195.1 5.72 195.1 5.72 174.9 0.72 174.9"/><polygon class="cls-1" points="107.52 200 127.72 200 132.52 200 132.72 200 132.72 175 127.72 175 127.72 195 107.52 195 107.52 200"/></svg>