<svg id="Layer_1" data-name="Layer 1" xmlns="http://www.w3.org/2000/svg" viewBox="0 0 1298.24 218.13"><defs><style>.cls-1{fill:#fff;}</style></defs><path class="cls-1" d="M149.17,675.29,174.73,720H151.22l-24.55-42.38H107.94V720H87.44V617.46h44.7Q168,617.46,168,647,168,669.21,149.17,675.29Zm-41.23-16.81h28.72q12.36-.21,12.71-11.28-.35-10.12-12.51-10.53H107.94Z" transform="translate(-70.88 -559.56)"/><path class="cls-1" d="M242.75,705.27q-14.7-14.73-14.7-36.54t14.7-36.57q14.7-14.7,36.57-14.7t36.57,14.7q14.7,14.7,14.7,36.57t-14.7,36.57Q301.19,720,279.32,720T242.75,705.27Zm36.64-4.41q13.61,0,22.15-9.23t8.54-22.9q0-13.66-8.54-22.9t-22.29-9.23q-13.61,0-22.15,9.23t-8.54,22.9q0,13.68,8.54,22.9T279.39,700.86Z" transform="translate(-70.88 -559.56)"/><path class="cls-1" d="M403.36,705.27q-14.73-14.67-14.73-36.74.06-21.6,14.76-36.34t36.44-14.73q21.94,0,37.67,13.67l-13.68,15a37.79,37.79,0,0,0-24-8.2q-13.81.08-22.25,8.61t-8.44,21.88q.06,14.28,8.54,22.69T440,699.49a36.75,36.75,0,0,0,23.85-8.13l13.68,15Q461.84,720,439.83,720,418.1,719.94,403.36,705.27Z" transform="translate(-70.88 -559.56)"/><path class="cls-1" d="M547.63,617.46h20.51v41l34.18-41h23l-40.13,47.85L633.76,720H607.1l-39-44.3V720H547.63Z" transform="translate(-70.88 -559.56)"/><path class="cls-1" d="M693.72,720V617.53l75.33-.07V636.6H714.22v21.88h41.09v19.07H714.22v23.31h54.69V720Z" transform="translate(-70.88 -559.56)"/><path class="cls-1" d="M921.22,617.46V636.6H887V720H866.53V636.6H832.35V617.46Z" transform="translate(-70.88 -559.56)"/><path class="cls-1" d="M984,720V617.53l75.33-.07V636.6h-54.82v21.88h41.08v19.07h-41.08v23.31h54.68V720Z" transform="translate(-70.88 -559.56)"/><path class="cls-1" d="M1127.59,720V617.53l75.34-.07V636.6H1148.1v21.88h41.08v19.07H1148.1v23.31h54.69V720Z" transform="translate(-70.88 -559.56)"/><path class="cls-1" d="M1333.15,675.29,1358.72,720H1335.2l-24.54-42.38h-18.73V720h-20.51V617.46h44.71q35.88,0,35.89,29.53Q1352,669.21,1333.15,675.29Zm-41.22-16.81h28.71q12.38-.21,12.72-11.28-.34-10.12-12.51-10.53h-28.92Z" transform="translate(-70.88 -559.56)"/><rect class="cls-1" y="198.9" width="1298.24" height="19.23"/><rect class="cls-1" width="1298.24" height="19.23"/><ellipse class="cls-1" cx="208.3" cy="109.06" rx="74.02" ry="10.07"/></svg>