<svg id="Fire" xmlns="http://www.w3.org/2000/svg" viewBox="0 0 50.93 54.24"><defs><style>.cls-1{fill:#f7931e;}.cls-2{fill:#fbc93b;}</style></defs><path class="cls-1" d="M103.54,190.86s3.21.59,5.6,27.12c0,0,2.59-9.08,5-9.08s3.93,7.8,4.48,29c0,0,3.37-14.36,7.42-14.36s5,21.54,5,21.54,6.87-36.76,11.13-36.76,6.31,9.63,6.31,9.63,0-27.12,5.93-27.12" transform="translate(-103.54 -190.86)"/><path class="cls-2" d="M145.49,190.86s-1.91.3-3.34,13.56c0,0-2.55-4.54-4-4.54s-5.34,3.9-5.67,14.51c0,0-2-7.17-4.43-7.17S122,218,122,218s-1.1-18.37-3.64-18.37-3.77,4.81-3.77,4.81,0-13.56-3.55-13.56" transform="translate(-103.54 -190.86)"/></svg>