<svg id="FLAME" xmlns="http://www.w3.org/2000/svg" viewBox="0 0 97.56 52.03"><defs><style>.cls-1{fill:#0071bc;}.cls-2{fill:#29abe2;}</style></defs><path class="cls-1" d="M79.22,236.37s.62.24,1.09,11c0,0,.5-3.68,1-3.68s.76,3.16.87,11.78c0,0,.65-5.83,1.44-5.83s1,8.74,1,8.74,1.34-14.92,2.16-14.92S88,247.38,88,247.38s0-11,1.14-11" transform="translate(-79.22 -206.36)"/><path class="cls-2" d="M87.35,236.37s-.37.12-.64,5.51c0,0-.5-1.85-.78-1.85s-1,1.59-1.1,5.9c0,0-.39-2.92-.86-2.92s-1.16,4.37-1.16,4.37-.22-7.46-.71-7.46-.73,2-.73,2,0-5.51-.69-5.51" transform="translate(-79.22 -206.36)"/><path class="cls-1" d="M166.91,236.37s.62.24,1.08,11c0,0,.5-3.68,1-3.68s.76,3.16.86,11.78c0,0,.66-5.83,1.44-5.83s1,8.74,1,8.74,1.33-14.92,2.15-14.92,1.23,3.91,1.23,3.91,0-11,1.15-11" transform="translate(-79.22 -206.36)"/><path class="cls-2" d="M175,236.37s-.37.12-.65,5.51c0,0-.49-1.85-.78-1.85s-1,1.59-1.1,5.9c0,0-.39-2.92-.86-2.92s-1.16,4.37-1.16,4.37-.21-7.46-.71-7.46-.73,2-.73,2,0-5.51-.68-5.51" transform="translate(-79.22 -206.36)"/><path class="cls-1" d="M119.31,206.36s1.1.35,1.91,15.82c0,0,.89-5.3,1.72-5.3s1.34,4.55,1.53,16.92c0,0,1.14-8.37,2.53-8.37S128.71,238,128.71,238s2.35-21.43,3.8-21.43,2.15,5.62,2.15,5.62,0-15.82,2-15.82" transform="translate(-79.22 -206.36)"/><path class="cls-2" d="M133.62,206.36s-.65.18-1.14,7.91c0,0-.87-2.65-1.36-2.65s-1.83,2.28-1.94,8.46c0,0-.69-4.18-1.51-4.18s-2,6.28-2,6.28-.38-10.72-1.24-10.72-1.29,2.81-1.29,2.81,0-7.91-1.21-7.91" transform="translate(-79.22 -206.36)"/></svg>