<svg id="Layer_2" data-name="Layer 2" xmlns="http://www.w3.org/2000/svg" viewBox="0 0 184.29 224.95"><defs><style>.cls-1{fill:#fff;}</style></defs><path class="cls-1" d="M220.12,200.67a54.62,54.62,0,0,0-.67-10.4l-.06-.37a38.7,38.7,0,0,0-1-4.11c-.28-1-.61-1.91-1-2.84-.21-.51-.43-1-.67-1.5-.15-.31-.3-.61-.46-.91s-.33-.58-.5-.87c-.33-.54-.67-1.07-1-1.58a16.15,16.15,0,0,0-1.53-1.78c-.27-.27-.56-.54-.85-.8l-1.14-1c-.54-.44-1.13-.92-1.76-1.41-1.35-1.06-2.87-2.23-4.52-3.48l-2.61-2-3.18-2.39c-6.54-4.93-14-10.7-20.45-16.65-.54-.5-1.07-1-1.59-1.49-2.08-2-4-4-5.75-6a46.52,46.52,0,0,1-5.38-7.4c-.13-.24-.27-.51-.41-.79-.27-.56-.55-1.2-.82-1.92-.14-.35-.28-.73-.41-1.12-.24-.66-.47-1.38-.7-2.14-.36-1.13-.71-2.37-1.06-3.69a1,1,0,0,1,0-.14c-7.85-30.82-17-108.45-34.57-108.45S101.28,93.15,93.43,124a46.78,46.78,0,0,1-3.44,9.8c-8.74,15.49-36.87,33.52-46.38,41.74-7.47,6.47-7.89,19.77-7.73,25.16a53.69,53.69,0,0,0,.13,6l66.07,11.49-3.56,14.73h13.61l-1,4.08h15.39v2.56a1,1,0,0,0,1,1h1a1,1,0,0,0,1-1v-2.56h15.39l-.77-4.08h13l-3.48-14.68L220,206.62A53.69,53.69,0,0,0,220.12,200.67Zm-25.63-8.37-50.83,10.11v11.21H112.34V202.41L61.51,192.3s-1.37-16.67,5.5-23.78,27.2-22.69,33.52-36.08S113.44,34.31,128,34.31s21.16,84.74,27.47,98.13,26.65,29,33.52,36.08S194.49,192.3,194.49,192.3Z" transform="translate(-35.86 -15.52)"/></svg>