<svg id="Layer_1" data-name="Layer 1" xmlns="http://www.w3.org/2000/svg" viewBox="0 0 161.73 192.13"><defs><style>.cls-1{fill:#fff;}</style></defs><path class="cls-1" d="M189.39,71.57h-.56a42.76,42.76,0,0,0-42.26-36.24H111.83v-8a4.1,4.1,0,0,0-4.1-4.1h-2.92a4.1,4.1,0,0,0-4.1,4.1v8H69.58a8.25,8.25,0,0,0-2.94.55c.06-.19.11-.37.17-.55a8.25,8.25,0,0,0-5.48,7.77V59.2h-.18a8,8,0,0,0-7.95,8v8.36a8,8,0,0,0,7.95,7.95h.18V167.2h-.18a8,8,0,0,0-7.95,8v8.36a8,8,0,0,0,7.95,8h.18v15.61a8.25,8.25,0,0,0,8.25,8.26h77a42.76,42.76,0,0,0,42.26-36.25h.56a25.53,25.53,0,0,0,25.54-25.53V97.11A25.54,25.54,0,0,0,189.39,71.57Zm-14.58,89.55a32.39,32.39,0,0,1-32.39,32.39H84.1a6.25,6.25,0,0,1-6.25-6.26V63.4a6.25,6.25,0,0,1,6.25-6.25h58.32a32.39,32.39,0,0,1,32.39,32.39Z" transform="translate(-53.2 -23.2)"/></svg>