<svg id="Layer_1" data-name="Layer 1" xmlns="http://www.w3.org/2000/svg" viewBox="0 0 79.42 188.95"><defs><style>.cls-1{fill:#fff;}</style></defs><path class="cls-1" d="M147.5,95.9c-.51-1.09-1.08-1.69-1.67-1.69H143l-37.33-71a3.73,3.73,0,0,0-.47,0l-.15,0-.31.07-.18.06-.29.11a1.51,1.51,0,0,0-.18.09l-.28.14-.19.12-.26.17-.19.15-.27.21-.18.17-.27.26-.18.19c-.09.09-.18.2-.27.3l-.17.2-.28.36-.16.21c-.1.13-.19.27-.29.42l-.14.2-.33.52a1.4,1.4,0,0,1-.1.16c-.14.23-.27.48-.41.73h0c-.43.79-.86,1.67-1.28,2.64a.42.42,0,0,1,0,.1l-.36.87a1.34,1.34,0,0,0-.07.18c-.11.28-.23.57-.34.86,0,.07,0,.14-.07.21l-.33.89-.07.22c-.11.31-.22.62-.32.94a1.72,1.72,0,0,0-.07.21l-.33,1-.06.19-.33,1.1,0,.15c-.12.4-.23.8-.35,1.22l0,.08a156,156,0,0,0-3.39,16h0C90,71.67,88.29,93.64,88.29,117.71s1.66,46,4.39,62.72h0a155.68,155.68,0,0,0,3.39,16l0,.08c.12.41.23.82.35,1.22l0,.15.33,1.1.06.19.33,1a1.72,1.72,0,0,0,.07.21c.1.32.21.63.32.94l.07.22.33.89c0,.07.05.14.07.21.11.29.23.58.34.86a.87.87,0,0,0,.07.17l.36.88a.42.42,0,0,1,0,.1c.42,1,.85,1.85,1.28,2.64h0l.41.73a.86.86,0,0,1,.1.16l.33.52.14.2c.1.14.19.29.29.42l.16.21.28.36.17.2.27.3.18.19.27.26.18.16.27.22a1.33,1.33,0,0,0,.19.14,2,2,0,0,0,.26.18l.19.12.28.14.18.09.29.11.18.06.31.07.15,0a3.71,3.71,0,0,0,.47,0l37.33-71h2.79c.59,0,1.16-.61,1.67-1.7a21.87,21.87,0,0,0,0-43.61ZM134,130.21l-24.14,45.43c-6,0-10.78-25.94-10.78-57.93s4.83-57.93,10.78-57.93L134,105.21c-.73,2-1.25,6.81-1.25,12.5S133.22,128.26,134,130.21Z" transform="translate(-88.29 -23.23)"/></svg>