<svg xmlns="http://www.w3.org/2000/svg" viewBox="0 0 175.84 204.19"><defs><style>.cls-1,.cls-3{fill:none;stroke:#fff;stroke-miterlimit:10;}.cls-1{stroke-width:20px;}.cls-2{fill:#fff;}.cls-3{stroke-width:10px;}</style></defs><g id="Layer_2" data-name="Layer 2"><path class="cls-1" d="M197.82,116.09a17.66,17.66,0,0,0,17.67-17.68" transform="translate(-51.65 -25.9)"/><rect class="cls-2" x="179.61" y="107.88" width="20" height="16.41" transform="translate(254.05 -99.43) rotate(90)"/><path class="cls-3" d="M197.33,111.09a13.25,13.25,0,0,0,13.25-13.26" transform="translate(-51.65 -25.9)"/><rect class="cls-2" x="210.49" y="82.75" width="10" height="24" transform="translate(258.59 -146.65) rotate(90)"/><rect class="cls-2" x="184.9" y="103.17" width="10" height="15.83" transform="translate(249.34 -104.72) rotate(90)"/></g><g id="Layer_1" data-name="Layer 1"><path class="cls-2" d="M183.28,61.54c-1.79.71-3.63,1.38-5.5,2a50.7,50.7,0,0,0-95.4,1.73c-1.9-.57-3.76-1.16-5.58-1.79A56.45,56.45,0,0,0,73.89,79H60.49V30.32a4.42,4.42,0,0,0-8.84,0V198.25a4.42,4.42,0,0,0,8.84,0v-43H75.44a56.66,56.66,0,0,0,38.79,40.14l-11,27.55A5.24,5.24,0,0,0,108,230.1h44.7a5.24,5.24,0,0,0,4.86-7.19l-9.12-22.73-2-4.89a56.59,56.59,0,0,0,40.29-54.18H187V81.61A56.39,56.39,0,0,0,183.28,61.54ZM60.49,146.38V87.8H73.82v49.33c-.09,1.32-.15,2.64-.15,4,0,1.78.09,3.54.25,5.27ZM174.05,135h-.12a43.68,43.68,0,0,1-87.35,0c0-1,0-2.06.12-3.08V89.05a43.67,43.67,0,0,1,2.29-14c1.41.49,2.85,1,4.31,1.38A39.15,39.15,0,0,1,167,75.12c1.45-.49,2.87-1,4.25-1.56a43.55,43.55,0,0,1,2.84,15.49Z" transform="translate(-51.65 -25.9)"/></g></svg>