<svg id="Vents" xmlns="http://www.w3.org/2000/svg" viewBox="0 0 154.43 203"><defs><style>.cls-1{fill:#fff;}</style></defs><polygon class="cls-1" points="148.41 73.37 153.33 73.37 150.33 58.51 147.06 58.51 141.8 58.51 138.54 58.51 135.52 73.37 140.45 73.37 148.41 73.37"/><path class="cls-1" d="M202.32,139h0a75.18,75.18,0,0,0-5-18.49l10.76-6.22h0V94.84h-20v7.89h0L156.05,21H138V60.13a61.39,61.39,0,0,0-20,0V21H100L66.67,105.85a74.72,74.72,0,0,0-13,33.13h6.49v1H58v18h2.17v1H53.68a75,75,0,0,0,148.64,0h-6.49v-1H198V140h-2.17v-1ZM128,206.37a56,56,0,1,1,56-56A56,56,0,0,1,128,206.37Z" transform="translate(-53.68 -20.98)"/></svg>