<svg xmlns="http://www.w3.org/2000/svg" viewBox="0 0 149.29 221.41"><defs><style>.cls-1{fill:#fff;}</style></defs><g id="Front"><path class="cls-1" d="M202.65,91.94a74.65,74.65,0,1,0-84.4,74V185.1L91,199l.64-15.47h.86a.42.42,0,0,0,.41-.42v-1.5a.42.42,0,0,0-.41-.42H89.41c0-1.78-2.35-3.23-5.25-3.23s-5.26,1.45-5.26,3.23H75.78a.41.41,0,0,0-.41.42v1.5a.41.41,0,0,0,.41.42h.86l2.18,53.15A2.14,2.14,0,0,0,81,238.71h6.42a2.14,2.14,0,0,0,2.13-2.05L90.59,210l27.66-17.71v13.84a2.16,2.16,0,0,0,2.16,2.15h15.18a2.16,2.16,0,0,0,2.16-2.15V192.33L165.41,210l1.09,26.62a2.14,2.14,0,0,0,2.13,2.05h6.42a2.14,2.14,0,0,0,2.13-2.05l2.18-53.15h.86a.41.41,0,0,0,.41-.42v-1.5a.41.41,0,0,0-.41-.42H177.1c0-1.78-2.36-3.23-5.26-3.23s-5.25,1.45-5.25,3.23h-3.13a.42.42,0,0,0-.41.42v1.5a.42.42,0,0,0,.41.42h.86L165,199,137.75,185.1V165.93A74.64,74.64,0,0,0,202.65,91.94ZM128,149.47a57.53,57.53,0,1,1,57.53-57.53A57.53,57.53,0,0,1,128,149.47Z" transform="translate(-53.35 -17.29)"/></g></svg>