<svg id="Rocket_layer" data-name="Rocket layer" xmlns="http://www.w3.org/2000/svg" xmlns:xlink="http://www.w3.org/1999/xlink" viewBox="0 0 105.07 204.85"><defs><style>.cls-1{fill:none;}.cls-2{clip-path:url(#clip-path);}.cls-3{fill:#fff;}</style><clipPath id="clip-path" transform="translate(-75.47 -22.37)"><path class="cls-1" d="M0,0V256H256V0ZM152.48,178.63h-49c-5-13-8.79-29.88-8.79-51.06C94.73,64.73,128,40,128,40s33.27,24.74,33.27,87.58C161.27,148.75,157.49,165.59,152.48,178.63Z"/></clipPath></defs><g class="cls-2"><path class="cls-3" d="M179.7,176.86c0-12.11-3.08-21.46-8.43-27.16a183,183,0,0,0,1.18-20.89C172.45,52.44,128,22.37,128,22.37S83.55,52.44,83.55,128.81a183,183,0,0,0,1.18,20.89c-5.35,5.7-8.43,15.05-8.43,27.16,0,20.78-.83,50.36-.83,50.36a6.48,6.48,0,0,0,5.12-3c3-4.31,2.56-34.58,10-46.39,1.44,4.65,3,9,4.74,13h28.45c2.12,18.41,4.26,36.36,4.26,36.36s2.14-17.95,4.26-36.36h28.45c1.7-4,3.3-8.38,4.74-13,7.4,11.81,7,42.08,10,46.39a6.48,6.48,0,0,0,5.12,3S179.7,197.64,179.7,176.86Z" transform="translate(-75.47 -22.37)"/></g></svg>