<svg id="Rocket_layer" data-name="Rocket layer" xmlns="http://www.w3.org/2000/svg" viewBox="0 0 105.07 204.85"><defs><style>.cls-1{fill:#29b1e2;}.cls-2{fill:#76ddfc;}.cls-3{fill:#333;stroke:#f2f2f2;stroke-miterlimit:10;stroke-width:4px;}.cls-4{fill:#e6e6e6;}</style></defs><path class="cls-1" d="M141.83,144.31s4.43-.9,14.76-.9c14,0,23.11,12.67,23.11,33.45s.83,50.36.83,50.36a6.48,6.48,0,0,1-5.12-3c-3.24-4.66-2.46-39.62-11.89-48.86-7.73-7.58-21.69-7-21.69-7" transform="translate(-75.47 -22.37)"/><path class="cls-1" d="M114.17,144.31s-4.43-.9-14.76-.9c-14,0-23.11,12.67-23.11,33.45s-.83,50.36-.83,50.36a6.48,6.48,0,0,0,5.12-3c3.24-4.66,2.46-39.62,11.89-48.86,7.73-7.58,21.69-7,21.69-7" transform="translate(-75.47 -22.37)"/><path class="cls-2" d="M128,22.37S83.55,52.44,83.55,128.81c0,25.74,5,46.21,11.74,62.05h65.42c6.69-15.84,11.74-36.31,11.74-62.05C172.45,52.44,128,22.37,128,22.37Z" transform="translate(-75.47 -22.37)"/><path class="cls-1" d="M146.23,41.2c-1.63-2.2-3.23-4.2-4.76-6a33.47,33.47,0,0,1-26.94,0C113,37,111.4,39,109.77,41.2A46.43,46.43,0,0,0,128,44.78,46.43,46.43,0,0,0,146.23,41.2Z" transform="translate(-75.47 -22.37)"/><path class="cls-1" d="M83.92,153.62q.93,5.73,2.18,11a339.72,339.72,0,0,0,41.9,2.44,339.72,339.72,0,0,0,41.9-2.44q1.24-5.27,2.18-11c-12.73,1.15-27.85,1.81-44.08,1.81S96.65,154.77,83.92,153.62Z" transform="translate(-75.47 -22.37)"/><circle class="cls-3" cx="52.53" cy="61.56" r="16.23"/><rect class="cls-1" x="41.56" y="90.7" width="21.95" height="4.99"/><rect class="cls-1" x="45.43" y="105.87" width="14.21" height="4.99"/><path class="cls-4" d="M128.28,73,128,73a11,11,0,0,0-11,11c0,.15,0,.3,0,.44A19.22,19.22,0,0,1,128.28,73Z" transform="translate(-75.47 -22.37)"/><path class="cls-1" d="M136.43,151.84c0,4.65-8.43,75.38-8.43,75.38s-8.43-70.73-8.43-75.38a8.43,8.43,0,0,1,16.86,0Z" transform="translate(-75.47 -22.37)"/></svg>