<svg xmlns="http://www.w3.org/2000/svg" viewBox="0 0 184.29 224.95"><defs><style>.cls-1,.cls-6{fill:#666;}.cls-2{fill:#f2f2f2;}.cls-3{fill:#ccc;}.cls-4{fill:#e6e6e6;}.cls-5{fill:#65c8d0;stroke:#666;stroke-miterlimit:10;}.cls-6{font-size:7.43px;font-family:Loew-ExtraBold, Loew;font-weight:800;}.cls-7{letter-spacing:-0.01em;}.cls-8{letter-spacing:-0.01em;}.cls-9{letter-spacing:0em;}.cls-10{font-size:4.46px;}.cls-11{fill:#c1272d;}.cls-12{fill:#31318f;}</style></defs><g id="Layer_2" data-name="Layer 2"><path class="cls-1" d="M212.39,177.86c-9.51-8.6-37.64-27.44-46.38-43.65S148.15,15.52,128,15.52,98.73,118,90,134.21s-36.87,35-46.38,43.65S36,206.62,36,206.62l70.32,12.23v13.56h43.34V218.85L220,206.62S221.89,186.45,212.39,177.86Z" transform="translate(-35.86 -15.52)"/><path class="cls-2" d="M212.39,175.51c-9.51-8.22-37.64-26.25-46.38-41.74S148.15,20.24,128,20.24s-29.27,98-38,113.53-36.87,33.52-46.38,41.74S36,203,36,203l70.32,11.7v13h43.34v-13L220,203S221.89,183.73,212.39,175.51Z" transform="translate(-35.86 -15.52)"/><path class="cls-3" d="M212.39,175.51c-9.51-8.22-37.64-26.25-46.38-41.74S148.15,20.24,128,20.24V227.69h21.67v-13L220,203S221.89,183.73,212.39,175.51Z" transform="translate(-35.86 -15.52)"/><polygon class="cls-4" points="78.73 150.94 62.66 217.32 94.8 217.32 78.73 150.94"/><polygon class="cls-3" points="105.56 150.94 89.84 217.32 121.28 217.32 105.56 150.94"/><polygon class="cls-2" points="92.14 153.38 75.26 221.4 109.03 221.4 92.14 153.38"/><path class="cls-2" d="M128,18.53c-8.53,0-14.91,17.17-20.09,36.91l.21,138.42h39.76l.21-138.42C142.91,35.7,136.53,18.53,128,18.53Z" transform="translate(-35.86 -15.52)"/><path class="cls-4" d="M128,18.53V193.86h19.88l.21-138.42C142.91,35.7,136.53,18.53,128,18.53Z" transform="translate(-35.86 -15.52)"/><polygon class="cls-4" points="92.14 131.75 92.14 221.4 109.03 221.4 92.14 131.75"/><rect class="cls-3" x="85.52" y="51.61" width="13.25" height="2.97" rx="1"/><rect class="cls-3" x="82.48" y="75.55" width="19.32" height="2.97" rx="1"/><rect class="cls-3" x="82.48" y="123.43" width="19.32" height="2.97" rx="1"/><rect class="cls-3" x="82.48" y="147.37" width="19.32" height="2.97" rx="1"/><rect class="cls-3" x="82.48" y="99.49" width="19.32" height="2.97" rx="1"/><rect class="cls-1" x="100.44" y="211.43" width="55.12" height="2.97" rx="1" transform="translate(305.06 69.4) rotate(90)"/><polygon class="cls-5" points="103.76 32.79 98.77 29.32 92.14 28.05 92.14 28.05 92.14 28.05 92.14 28.05 92.14 28.05 85.52 29.32 80.53 32.79 78.77 37.2 81.8 40.05 84 36.94 87.18 35.04 92.14 34.05 97.69 35.04 100.29 36.94 102.49 40.05 105.52 37.76 103.76 32.79"/><text class="cls-6" transform="translate(134.94 172.12)">N<tspan class="cls-7" x="5.95" y="0">A</tspan><tspan class="cls-8" x="12.11" y="0">S</tspan><tspan class="cls-9" x="17.26" y="0">A</tspan><tspan class="cls-10"><tspan x="-0.49" y="5.35">Challenger</tspan></tspan></text><rect class="cls-11" x="26.58" y="166.25" width="21.49" height="11.74" rx="0.75"/><rect class="cls-2" x="36.2" y="167.55" width="11.87" height="1.3"/><rect class="cls-2" x="36.2" y="170.16" width="11.87" height="1.3"/><rect class="cls-2" x="26.58" y="172.77" width="21.49" height="1.3"/><rect class="cls-2" x="26.58" y="175.38" width="21.49" height="1.3"/><path class="cls-12" d="M27.31,166.25H36.2a0,0,0,0,1,0,0v6.52a0,0,0,0,1,0,0H26.58a0,0,0,0,1,0,0V167A.73.73,0,0,1,27.31,166.25Z"/></g></svg>