<svg xmlns="http://www.w3.org/2000/svg" viewBox="0 0 149.29 221.41"><defs><style>.cls-1{fill:#999;}.cls-2{fill:gray;}.cls-3{fill:#c1272d;}.cls-4{fill:#ccc;}.cls-5{font-size:13.31px;fill:#4d4d4d;font-family:BebasNeue-Regular, Bebas Neue;}.cls-6{fill:#b3b3b3;}</style></defs><g id="Midsection"><rect class="cls-1" x="64.9" y="101.75" width="19.49" height="89.28" rx="2.16"/><polygon class="cls-1" points="30.8 196.86 68.4 172.8 68.4 166.02 30.8 185.2 30.8 196.86"/><polygon class="cls-1" points="118.49 196.86 80.89 172.8 80.89 166.02 118.49 185.2 118.49 196.86"/><rect class="cls-2" x="127.13" y="190.34" width="1.75" height="11.66" rx="0.75" transform="translate(270.81 50.87) rotate(90)"/><rect class="cls-2" x="127.13" y="196.38" width="1.75" height="11.66" rx="0.75" transform="translate(276.85 56.91) rotate(90)"/><rect class="cls-2" x="127.13" y="180.15" width="1.75" height="7.86" rx="0.75" transform="translate(258.73 38.79) rotate(90)"/><rect class="cls-2" x="127.13" y="186.2" width="1.75" height="7.86" rx="0.75" transform="translate(264.77 44.83) rotate(90)"/><rect class="cls-2" x="127.13" y="166.17" width="1.75" height="11.66" rx="0.75" transform="translate(246.65 26.71) rotate(90)"/><rect class="cls-2" x="127.13" y="172.21" width="1.75" height="11.66" rx="0.75" transform="translate(252.69 32.75) rotate(90)"/></g><g id="Boosters"><ellipse class="cls-3" cx="30.8" cy="163.88" rx="5.25" ry="3.23"/><path class="cls-4" d="M87.37,238.71H81a2.14,2.14,0,0,1-2.13-2.05l-2.19-53.27a2.13,2.13,0,0,1,2.13-2.22H89.55a2.13,2.13,0,0,1,2.13,2.22L89.5,236.66A2.14,2.14,0,0,1,87.37,238.71Z" transform="translate(-53.35 -17.29)"/><rect class="cls-4" x="22.01" y="163.88" width="17.58" height="2.33" rx="0.41"/><rect class="cls-1" x="29.93" y="173.1" width="1.75" height="39.09" rx="0.75"/><ellipse class="cls-3" cx="118.49" cy="163.88" rx="5.25" ry="3.23"/><path class="cls-4" d="M175.05,238.71h-6.42a2.14,2.14,0,0,1-2.13-2.05l-2.18-53.27a2.13,2.13,0,0,1,2.13-2.22h10.79a2.13,2.13,0,0,1,2.13,2.22l-2.19,53.27A2.14,2.14,0,0,1,175.05,238.71Z" transform="translate(-53.35 -17.29)"/><rect class="cls-4" x="109.7" y="163.88" width="17.58" height="2.33" rx="0.41"/><rect class="cls-1" x="117.61" y="173.1" width="1.75" height="39.09" rx="0.75"/></g><g id="Front"><circle class="cls-4" cx="74.65" cy="74.65" r="74.65"/><text class="cls-5" transform="translate(44.55 46.19) rotate(-42.78)">N</text><text class="cls-5" transform="translate(48.63 42.52) rotate(-37.65)"> </text><text class="cls-5" transform="translate(50.22 41.28) rotate(-34.86)"> </text><text class="cls-5" transform="translate(51.8 40.1) rotate(-30.07)">C</text><text class="cls-5" transform="translate(56.08 37.68) rotate(-25.29)"> </text><text class="cls-5" transform="matrix(0.92, -0.38, 0.38, 0.92, 57.9, 36.82)"> </text><text class="cls-5" transform="translate(59.68 36.01) rotate(-17.68)">C</text><text class="cls-5" transform="translate(64.39 34.57) rotate(-12.86)"> </text><text class="cls-5" transform="matrix(0.98, -0.18, 0.18, 0.98, 66.33, 34.12)"> </text><text class="cls-5" transform="matrix(0.99, -0.11, 0.11, 0.99, 68.29, 33.74)">-</text><text class="cls-5" transform="translate(71.73 33.38) rotate(-2.54)"> </text><text class="cls-5" transform="matrix(1, 0.02, -0.02, 1, 73.75, 33.28)"> </text><text class="cls-5" transform="translate(75.69 33.22) rotate(5.08)">1</text><text class="cls-5" transform="translate(80.81 33.74) rotate(9.99)"> </text><text class="cls-5" transform="translate(82.8 34.09) rotate(12.82)"> </text><text class="cls-5" transform="translate(84.71 34.44) rotate(17.77)">7</text><text class="cls-5" transform="matrix(0.92, 0.39, -0.39, 0.92, 89.58, 36.07)"> </text><text class="cls-5" transform="translate(91.43 36.84) rotate(25.51)"> </text><text class="cls-5" transform="matrix(0.86, 0.51, -0.51, 0.86, 93.24, 37.62)">0</text><text class="cls-5" transform="translate(97.63 40.27) rotate(35.38)"> </text><text class="cls-5" transform="translate(99.28 41.44) rotate(38.16)"> </text><text class="cls-5" transform="matrix(0.73, 0.68, -0.68, 0.73, 100.85, 42.57)">1</text><path class="cls-3" d="M128,71.33a20.52,20.52,0,1,0,20.51,20.51A20.51,20.51,0,0,0,128,71.33Zm0,35.92a15.41,15.41,0,1,1,15.4-15.41A15.4,15.4,0,0,1,128,107.25Z" transform="translate(-53.35 -17.29)"/><path class="cls-6" d="M128,69.48a22.36,22.36,0,1,0,22.36,22.36A22.36,22.36,0,0,0,128,69.48Zm0,39.15a16.79,16.79,0,1,1,16.79-16.79A16.79,16.79,0,0,1,128,108.63Z" transform="translate(-53.35 -17.29)"/><circle class="cls-6" cx="74.65" cy="74.55" r="7.43"/><rect class="cls-6" x="79.3" y="72.3" width="1.75" height="39.09" rx="0.75" transform="translate(118.67 -5.63) rotate(90)"/><rect class="cls-6" x="174.95" y="72.3" width="1.75" height="39.09" rx="0.75" transform="translate(214.31 -101.27) rotate(90)"/><rect class="cls-6" x="127.13" y="120.12" width="1.75" height="39.09" rx="0.75" transform="translate(202.65 262.03) rotate(180)"/><rect class="cls-6" x="160.94" y="116.17" width="1.75" height="18.97" rx="0.75" transform="translate(311.73 82.8) rotate(135)"/><rect class="cls-6" x="93.31" y="116.17" width="1.75" height="18.97" rx="0.75" transform="translate(63.09 -47.09) rotate(45)"/></g></svg>