<svg id="Layer_1" data-name="Layer 1" xmlns="http://www.w3.org/2000/svg" viewBox="0 0 79.42 188.95"><defs><style>.cls-1{fill:#e6e6e6;}.cls-2{fill:#ccc;}.cls-3{fill:#f2f2f2;}.cls-4{fill:#29c4e2;}</style></defs><path class="cls-1" d="M155.4,117.71,105.71,23.23c-9.62,0-17.42,42.3-17.42,94.48s7.8,94.47,17.42,94.47Z" transform="translate(-88.29 -23.23)"/><path class="cls-2" d="M155.4,117.71h0L92.68,180.43c3.19,19.48,7.85,31.75,13,31.75Z" transform="translate(-88.29 -23.23)"/><path class="cls-3" d="M155.4,117.71h0L92.68,55c3.19-19.48,7.85-31.76,13-31.76Z" transform="translate(-88.29 -23.23)"/><path class="cls-1" d="M145.83,94.21H143c-2.48,0-4.48,10.52-4.48,23.5s2,23.5,4.48,23.5h2.86Z" transform="translate(-88.29 -23.23)"/><ellipse class="cls-3" cx="57.55" cy="94.47" rx="4.48" ry="23.5"/><path class="cls-4" d="M145.85,139.58a21.88,21.88,0,0,0,0-43.75h0c-1.74,0-3.16,9.8-3.16,21.88s1.42,21.88,3.16,21.88Z" transform="translate(-88.29 -23.23)"/><path class="cls-3" d="M165.39,118.71c0-.34.05-.66.05-1A19,19,0,0,0,150.07,99.1,22.23,22.23,0,0,1,165.39,118.71Z" transform="translate(-88.29 -23.23)"/></svg>