<svg xmlns="http://www.w3.org/2000/svg" viewBox="0 0 175.84 176.77"><defs><style>.cls-1,.cls-3{fill:none;stroke-miterlimit:10;}.cls-1{stroke:#fbb03b;stroke-width:20px;}.cls-2{fill:#fbb03b;}.cls-3{stroke:#f7931e;stroke-width:10px;}.cls-4{fill:#666;}.cls-5{fill:#f7931e;}.cls-6{fill:#29abe2;}.cls-7{fill:#fff;opacity:0.4;}.cls-8{fill:gray;}.cls-9{opacity:0.2;}</style></defs><g id="Layer_2" data-name="Layer 2"><path class="cls-1" d="M197.82,116.09a17.66,17.66,0,0,0,17.67-17.68" transform="translate(-51.65 -25.9)"/><rect class="cls-2" x="179.61" y="107.88" width="20" height="16.41" transform="translate(254.05 -99.43) rotate(90)"/><path class="cls-3" d="M197.33,111.09a13.25,13.25,0,0,0,13.25-13.26" transform="translate(-51.65 -25.9)"/><rect class="cls-4" x="210.49" y="82.75" width="10" height="24" transform="translate(258.59 -146.65) rotate(90)"/><rect class="cls-5" x="184.9" y="103.17" width="10" height="15.83" transform="translate(249.34 -104.72) rotate(90)"/></g><g id="Layer_1" data-name="Layer 1"><circle class="cls-6" cx="78.74" cy="55.7" r="50.71"/><path class="cls-7" d="M161.34,51.22a86.73,86.73,0,0,1,14,18.34,46.65,46.65,0,0,0-33.82-33.18A86.58,86.58,0,0,1,161.34,51.22Z" transform="translate(-51.65 -25.9)"/><path class="cls-5" d="M186.8,141.11H187V81.61a56.39,56.39,0,0,0-3.67-20.07c-15.88,6.3-35.14,10-55.9,10a156.62,156.62,0,0,1-50.58-8,56.49,56.49,0,0,0-3,18.1v55.52c-.09,1.32-.15,2.64-.15,4a56.57,56.57,0,1,0,113.13,0Z" transform="translate(-51.65 -25.9)"/><rect class="cls-8" x="-32.31" y="109.87" width="176.77" height="8.84" rx="4.42" transform="translate(118.71 32.31) rotate(90)"/><rect class="cls-8" x="56.07" y="78.96" width="32.76" height="8.84" rx="4.42" transform="translate(93.25 140.86) rotate(180)"/><rect class="cls-8" x="56.07" y="146.38" width="32.76" height="8.84" rx="4.42" transform="translate(93.25 275.7) rotate(-180)"/><path class="cls-9" d="M130.31,71.5c-1,0-1.95,0-2.93,0a156.62,156.62,0,0,1-50.58-8,56.49,56.49,0,0,0-3,18.1v55.52c-.09,1.32-.15,2.64-.15,4a56.56,56.56,0,0,0,56.56,56.57h.08Z" transform="translate(-51.65 -25.9)"/><circle class="cls-4" cx="78.66" cy="79.55" r="11.2"/><circle class="cls-4" cx="78.74" cy="131.68" r="11.2"/></g></svg>