<svg xmlns="http://www.w3.org/2000/svg" viewBox="0 0 154.43 207.11"><defs><style>.cls-1,.cls-6,.cls-7{fill:none;}.cls-1,.cls-11,.cls-12,.cls-8{stroke:#b3b3b3;}.cls-1,.cls-11,.cls-12,.cls-5,.cls-6,.cls-7,.cls-8{stroke-miterlimit:10;}.cls-1{stroke-width:10px;}.cls-2{fill:#ccc;}.cls-3{fill:#8a1c20;}.cls-4,.cls-8{fill:#b3b3b3;}.cls-5{fill:#29abe2;}.cls-5,.cls-6{stroke:#4d4d4d;}.cls-7{stroke:#999;}.cls-8{stroke-width:4px;}.cls-11,.cls-12,.cls-9{fill:gray;}.cls-10{fill:#999;}.cls-11{stroke-width:3px;}.cls-12{stroke-width:2px;}</style></defs><g id="bonk"><path class="cls-1" d="M181.26,201a75.28,75.28,0,0,1-106.52,0" transform="translate(-53.68 -20.98)"/></g><g id="big_" data-name="big!"><polygon id="right_fing" data-name="right fing" class="cls-2" points="148.63 118 84.32 118 84.32 0 102.37 0 148.63 118"/><polygon id="left_fing" data-name="left fing" class="cls-2" points="0 118 64.32 118 64.32 0 46.26 0 0 118"/><rect class="cls-3" x="50.95" y="44.41" width="13.37" height="13.37"/><g id="Main"><path class="cls-2" d="M202.32,139a75,75,0,0,0-148.64,0Z" transform="translate(-53.68 -20.98)"/><path class="cls-2" d="M53.68,159a75,75,0,0,0,148.64,0Z" transform="translate(-53.68 -20.98)"/><rect id="Back_rect" data-name="Back rect" class="cls-2" x="6.49" y="118" width="135.65" height="20"/></g><rect class="cls-3" x="112.82" y="129.35" width="8.7" height="13.37"/><rect class="cls-3" x="84.73" y="110.54" width="19.41" height="10.07" transform="translate(-107.74 79.65) rotate(-45)"/><rect class="cls-3" x="156.48" y="131.33" width="24.03" height="10.07" transform="translate(215.74 -76.46) rotate(78.77)"/><rect id="mid_rect" data-name="mid rect" class="cls-4" x="4.32" y="119" width="140" height="18"/><path class="cls-4" d="M118,139h20V60.13a61.39,61.39,0,0,0-20,0Z" transform="translate(-53.68 -20.98)"/><rect class="cls-3" x="145.55" y="112.89" width="24.03" height="10.07" transform="translate(75.85 -97.85) rotate(45)"/><rect class="cls-3" x="82.15" y="179.75" width="8.7" height="23.46" transform="translate(-156.5 79.36) rotate(-39.98)"/></g><g id="arm"><polygon class="cls-5" points="153.33 73.37 135.52 73.37 138.54 58.51 150.33 58.51 153.33 73.37"/><polygon class="cls-6" points="148.41 73.37 140.45 73.37 141.8 58.51 147.06 58.51 148.41 73.37"/><rect class="cls-4" x="122.19" y="117.3" width="86.74" height="20" transform="translate(-95.15 78.85) rotate(-30)"/><rect class="cls-4" x="134.43" y="73.86" width="20" height="19.42"/><path class="cls-7" d="M163.5,143.46a27.49,27.49,0,0,1,0,11H195v-11Z" transform="translate(-53.68 -20.98)"/><path class="cls-7" d="M106.19,149a18.9,18.9,0,0,1,.83-5.52H61v11h46A18.9,18.9,0,0,1,106.19,149Z" transform="translate(-53.68 -20.98)"/><circle id="center_light" data-name="center light" class="cls-8" cx="74.32" cy="128" r="17.51"/><path class="cls-7" d="M122.48,127.55a14,14,0,0,1,11,0V64.37h-11Z" transform="translate(-53.68 -20.98)"/></g><g id="silo"><rect class="cls-9" x="90.55" y="112.2" width="1.36" height="4.43" rx="0.68" transform="translate(-86.84 16.35) rotate(-19.65)"/><ellipse id="silo-2" data-name="silo" class="cls-10" cx="90" cy="110.98" rx="9.76" ry="4.88" transform="translate(-85.76 15.74) rotate(-19.65)"/><ellipse id="Silo_center" data-name="Silo center" class="cls-2" cx="90" cy="110.98" rx="1.19" ry="0.59" transform="translate(-85.76 15.74) rotate(-19.65)"/></g><g id="Vents"><circle id="bot_left" data-name="bot left" class="cls-11" cx="46.32" cy="47" r="7.5"/><circle id="bot_right" data-name="bot right" class="cls-11" cx="102.32" cy="47" r="7.5"/><circle id="top_left" data-name="top left" class="cls-12" cx="51.32" cy="20" r="6"/><ellipse id="top_right" data-name="top right" class="cls-12" cx="97.32" cy="20" rx="6" ry="6.14"/><circle id="bot_left-2" data-name="bot left" class="cls-11" cx="74.32" cy="187" r="7.5"/><circle id="bot_left-3" data-name="bot left" class="cls-11" cx="41.32" cy="177" r="7.5"/><circle id="bot_left-4" data-name="bot left" class="cls-11" cx="107.32" cy="177" r="7.5"/><circle id="top_left-2" data-name="top left" class="cls-12" cx="53.32" cy="153.5" r="6"/><circle id="top_left-3" data-name="top left" class="cls-12" cx="95.32" cy="153.5" r="6"/><circle id="top_left-4" data-name="top left" class="cls-12" cx="74.32" cy="163" r="6"/></g></svg>