<svg id="Layer_1" data-name="Layer 1" xmlns="http://www.w3.org/2000/svg" viewBox="0 0 161.73 192.13"><defs><style>.cls-1{fill:#8c6239;}.cls-2{fill:#dbad79;}.cls-3{fill:#4d4d4d;}.cls-4{fill:#e6e6e6;}.cls-5,.cls-7{fill:#666;}.cls-6{fill:#fff;}.cls-7{opacity:0.2;}</style></defs><path class="cls-1" d="M151.73,71.57h37.66a25.54,25.54,0,0,1,25.54,25.54v56.44a25.53,25.53,0,0,1-25.54,25.53H151.73Z" transform="translate(-53.2 -23.2)"/><path class="cls-2" d="M155.89,75.21h32.7c12.25,0,22.18,10.66,22.18,23.81v52.61c0,13.15-9.93,23.81-22.18,23.81h-32.7Z" transform="translate(-53.2 -23.2)"/><rect class="cls-3" x="53.2" y="59.2" width="24.26" height="24.26" rx="7.95" transform="translate(-59.2 113.46) rotate(-90)"/><rect class="cls-3" x="53.2" y="167.2" width="24.26" height="24.26" rx="7.95" transform="translate(-167.2 221.46) rotate(-90)"/><rect class="cls-3" x="94.14" y="29.77" width="24.26" height="11.11" rx="4.1" transform="translate(17.74 118.4) rotate(-90)"/><path class="cls-4" d="M83.51,35.33h63.06a42.76,42.76,0,0,1,42.76,42.76v94.48a42.77,42.77,0,0,1-42.76,42.76H83.51Z" transform="translate(-53.2 -23.2)"/><path class="cls-5" d="M83.51,215.33H69.58a8.25,8.25,0,0,1-8.25-8.26V43.58a8.25,8.25,0,0,1,8.25-8.25H83.51Z" transform="translate(-53.2 -23.2)"/><path id="Highlight" class="cls-6" d="M183.58,74a31.46,31.46,0,0,0-.42-4.71c-2.61-15.71-16.79-26.86-33.39-27.49C165.32,47.44,177.84,59,183.58,74Z" transform="translate(-53.2 -23.2)"/><path class="cls-7" d="M179.19,199.71a42.6,42.6,0,0,1-27.62,10.13h-77a8.25,8.25,0,0,1-8.25-8.25V38.1a8.39,8.39,0,0,1,.48-2.77,8.25,8.25,0,0,0-5.48,7.77V206.59a8.25,8.25,0,0,0,8.25,8.25h77A42.65,42.65,0,0,0,179.19,199.71Z" transform="translate(-53.2 -23.2)"/></svg>